<?xml version="1.0" encoding="utf-8"?>
<!-- Generator: Adobe Illustrator 19.0.0, SVG Export Plug-In . SVG Version: 6.00 Build 0)  -->
<svg version="1.1" id="Layer_1" xmlns="http://www.w3.org/2000/svg" xmlns:xlink="http://www.w3.org/1999/xlink" x="0px" y="0px"
	 viewBox="0 0 595.3 612.8" style="enable-background:new 0 0 595.3 612.8;" xml:space="preserve">
<style type="text/css">
	.st0{fill:#242947;}
	.st1{fill:#FFC247;}
	.st2{fill:#FFA538;}
	.st3{fill:#1EA0E2;}
	.st4{fill:#FFFFFF;}
</style>
<rect id="XMLID_72_" x="0" y="0" class="st0" width="595.3" height="306.4"/>
<g id="XMLID_22_">
	<path id="XMLID_113_" class="st1" d="M241.4,155v-17.6c0-2.2-0.4-4.4-1-6.4c-2.7-7.9-10.5-13.6-19.3-13.6h-5.4l-3.1,20.9l3.1,16.8
		l9.2,4.5l6.6-4.5H241.4z"/>
	<path id="XMLID_112_" class="st2" d="M231.5,155l0,2.6c0,2.4-0.5,4.7-1.5,6.7c-2.5,5.5-8.1,9.2-14.5,9.2h0l-4.1-11.2l4.1-7.3H231.5
		z"/>
	<polygon id="XMLID_100_" class="st3" points="215.7,189.1 215.7,161.8 183,161.8 	"/>
	<path id="XMLID_99_" class="st3" d="M215.7,117.3h-12.2h-12.5c-11,0-20,8.9-20,20v16c0,11,8.9,20,20,20h24.8V117.3z"/>
	<circle id="XMLID_98_" class="st0" cx="193.3" cy="145.3" r="9"/>
	<g id="XMLID_115_">
		<polygon id="XMLID_111_" class="st4" points="290,127.7 279.5,157.7 268.9,127.7 262.2,127.7 275.7,164.4 283.2,164.4 
			296.7,127.7 		"/>
		<path id="XMLID_110_" class="st4" d="M343,142.3v-5.6c-0.4,0-1-0.1-1.6-0.1c-3.4,0-6.2,1.4-8.1,3.9L333,141v-3.7h-5.9v27.1h5.9
			l0-18.1l0,0c1.6-2.5,4.6-4.1,7.9-4.1C341.7,142.2,342.5,142.3,343,142.3z"/>
		<path id="XMLID_107_" class="st4" d="M362,165.1c7.3,0,11.7-5.3,11.7-14.2c0-8.9-4.4-14.2-11.7-14.2c-3,0-6.1,0.9-8.3,3l-0.3,0.3
			l0.1-13.9h-5.9v38.4h5.9V162l0.3,0.3C356,164.4,359,165.1,362,165.1z M353.6,157.2v-12.8l0,0c1.6-1.8,4.3-3,6.8-3
			c4.8,0,7.3,3.3,7.3,9.4s-2.5,9.4-7.3,9.4C357.9,160.3,355.2,159.1,353.6,157.2L353.6,157.2z"/>
		<path id="XMLID_105_" class="st4" d="M380.8,157.5c2.1,0,3.8,1.7,3.8,3.9c0,2.2-1.7,3.9-3.8,3.9c-2.1,0-3.8-1.7-3.8-3.9
			C377,159.2,378.7,157.5,380.8,157.5z"/>
		<path id="XMLID_102_" class="st4" d="M399.2,165.1c3.2,0,6-0.6,7.9-2.4l0.3-0.3v2.1h5.9v-16c0-8-3.7-11.8-11.6-11.8
			c-4.2,0-8,1.4-11.1,3.9l3.4,3.4c2-1.6,4.5-2.5,7-2.5c4.4,0,6.4,1.9,6.4,5.9v2.7l-0.3-0.2c-2.3-1.8-4.9-2.4-8-2.4
			c-5.9,0-10.2,3.7-10.2,8.8C389.1,161.4,393.3,165.1,399.2,165.1z M400.8,152.2c2.5,0,4.8,0.9,6.6,2.5l0.1,0.1v3l-0.1,0.1
			c-1.6,1.6-4,2.5-6.6,2.5c-3.6,0-5.7-1.5-5.7-4.1C395.1,153.7,397.2,152.2,400.8,152.2z"/>
		<rect id="XMLID_101_" x="418.4" y="126.1" class="st4" width="5.9" height="38.4"/>
		<path id="XMLID_92_" class="st4" d="M322.5,151c0-8.4-5.4-14.4-13.1-14.4c-7.8,0-13.2,5.8-13.2,14.2c0,8.5,5.7,14.2,14.1,14.2
			c4.5,0,8.4-1.9,10.9-5.3l-4.1-2.9c-1.9,2.3-4.2,3.4-6.9,3.4c-4.3,0-7.5-2.8-8.1-7.1l0-0.2h20.3C322.5,152.4,322.5,151.5,322.5,151
			z M309.4,141.4c3.9,0,6.8,2.7,7.1,6.8h-14.4C302.8,144,305.5,141.4,309.4,141.4z"/>
	</g>
</g>
<g id="XMLID_21_">
	<path id="XMLID_20_" class="st1" d="M241.4,461.4v-17.6c0-2.2-0.4-4.4-1-6.4c-2.7-7.9-10.5-13.6-19.3-13.6h-5.4l-3.1,20.9l3.1,16.8
		l9.2,4.5l6.6-4.5H241.4z"/>
	<path id="XMLID_19_" class="st2" d="M231.5,461.4l0,2.6c0,2.4-0.5,4.7-1.5,6.7c-2.5,5.5-8.1,9.2-14.5,9.2h0l-4.1-11.2l4.1-7.3
		H231.5z"/>
	<polygon id="XMLID_18_" class="st3" points="215.7,495.5 215.7,468.2 183,468.2 	"/>
	<path id="XMLID_17_" class="st3" d="M215.7,423.7h-12.2h-12.5c-11,0-20,8.9-20,20v16c0,11,8.9,20,20,20h24.8V423.7z"/>
	<circle id="XMLID_16_" class="st0" cx="193.3" cy="451.7" r="9"/>
	<g id="XMLID_1_">
		<polygon id="XMLID_15_" class="st0" points="290,434.1 279.5,464.1 268.9,434.1 262.2,434.1 275.7,470.8 283.2,470.8 296.7,434.1 
					"/>
		<path id="XMLID_14_" class="st0" d="M343,448.7v-5.6c-0.4,0-1-0.1-1.6-0.1c-3.4,0-6.2,1.4-8.1,3.9l-0.3,0.4v-3.7h-5.9v27.1h5.9
			l0-18.1l0,0c1.6-2.5,4.6-4.1,7.9-4.1C341.7,448.6,342.5,448.7,343,448.7z"/>
		<path id="XMLID_11_" class="st0" d="M362,471.5c7.3,0,11.7-5.3,11.7-14.2c0-8.9-4.4-14.2-11.7-14.2c-3,0-6.1,0.9-8.3,3l-0.3,0.3
			l0.1-13.9h-5.9v38.4h5.9v-2.4l0.3,0.3C356,470.8,359,471.5,362,471.5z M353.6,463.7v-12.8l0,0c1.6-1.8,4.3-3,6.8-3
			c4.8,0,7.3,3.3,7.3,9.4s-2.5,9.4-7.3,9.4C357.9,466.7,355.2,465.5,353.6,463.7L353.6,463.7z"/>
		<path id="XMLID_9_" class="st0" d="M380.8,463.9c2.1,0,3.8,1.7,3.8,3.9c0,2.2-1.7,3.9-3.8,3.9c-2.1,0-3.8-1.7-3.8-3.9
			C377,465.6,378.7,463.9,380.8,463.9z"/>
		<path id="XMLID_6_" class="st0" d="M399.2,471.5c3.2,0,6-0.6,7.9-2.4l0.3-0.3v2.1h5.9v-16c0-8-3.7-11.8-11.6-11.8
			c-4.2,0-8,1.4-11.1,3.9l3.4,3.4c2-1.6,4.5-2.5,7-2.5c4.4,0,6.4,1.9,6.4,5.9v2.7l-0.3-0.2c-2.3-1.8-4.9-2.4-8-2.4
			c-5.9,0-10.2,3.7-10.2,8.8C389.1,467.8,393.3,471.5,399.2,471.5z M400.8,458.6c2.5,0,4.8,0.9,6.6,2.5l0.1,0.1v3l-0.1,0.1
			c-1.6,1.6-4,2.5-6.6,2.5c-3.6,0-5.7-1.5-5.7-4.1C395.1,460.1,397.2,458.6,400.8,458.6z"/>
		<rect id="XMLID_5_" x="418.4" y="432.5" class="st0" width="5.9" height="38.4"/>
		<path id="XMLID_2_" class="st0" d="M322.5,457.4c0-8.4-5.4-14.4-13.1-14.4c-7.8,0-13.2,5.8-13.2,14.2c0,8.5,5.7,14.2,14.1,14.2
			c4.5,0,8.4-1.9,10.9-5.3l-4.1-2.9c-1.9,2.3-4.2,3.4-6.9,3.4c-4.3,0-7.5-2.8-8.1-7.1l0-0.2h20.3C322.5,458.8,322.5,458,322.5,457.4
			z M309.4,447.8c3.9,0,6.8,2.7,7.1,6.8h-14.4C302.8,450.4,305.5,447.8,309.4,447.8z"/>
	</g>
</g>
</svg>
