<?xml version="1.0" encoding="utf-8"?>
<!-- Generator: Adobe Illustrator 19.0.0, SVG Export Plug-In . SVG Version: 6.00 Build 0)  -->
<svg version="1.1" id="Layer_1" xmlns="http://www.w3.org/2000/svg" xmlns:xlink="http://www.w3.org/1999/xlink" x="0px" y="0px"
	 viewBox="0 0 595.3 612.8" style="enable-background:new 0 0 595.3 612.8;" xml:space="preserve">
<style type="text/css">
	.st0{fill:#242947;}
	.st1{fill:#FFC247;}
	.st2{fill:#FFA538;}
	.st3{fill:#1EA0E2;}
	.st4{fill:#FFFFFF;}
</style>
<rect id="XMLID_72_" x="0" y="0" class="st0" width="595.3" height="306.4"/>
<g id="XMLID_143_">
	<path id="XMLID_20_" class="st1" d="M241.4,461.4v-17.6c0-2.2-0.4-4.4-1-6.4c-2.7-7.9-10.5-13.6-19.3-13.6h-5.4l-3.1,20.9l3.1,16.8
		l9.2,4.5l6.6-4.5H241.4z"/>
	<path id="XMLID_19_" class="st2" d="M231.5,461.4l0,2.6c0,2.4-0.5,4.7-1.5,6.7c-2.5,5.5-8.1,9.2-14.5,9.2h0l-4.1-11.2l4.1-7.3
		H231.5z"/>
	<polygon id="XMLID_18_" class="st3" points="215.7,495.5 215.7,468.2 183,468.2 	"/>
	<path id="XMLID_17_" class="st3" d="M215.7,423.7h-12.2h-12.5c-11,0-20,8.9-20,20v16c0,11,8.9,20,20,20h24.8V423.7z"/>
	<circle id="XMLID_16_" class="st0" cx="193.3" cy="451.7" r="9"/>
	<g id="XMLID_2_">
		<polygon id="XMLID_15_" class="st0" points="290,434.1 279.5,464.1 268.9,434.1 262.2,434.1 275.7,470.8 283.2,470.8 296.7,434.1 
					"/>
		<path id="XMLID_14_" class="st0" d="M343,448.7v-5.6c-0.4,0-1-0.1-1.6-0.1c-3.4,0-6.2,1.4-8.1,3.9l-0.3,0.4v-3.7h-5.9v27.1h5.9
			l0-18.1l0,0c1.6-2.5,4.6-4.1,7.9-4.1C341.7,448.6,342.5,448.7,343,448.7z"/>
		<path id="XMLID_11_" class="st0" d="M362,471.5c7.3,0,11.7-5.3,11.7-14.2c0-8.9-4.4-14.2-11.7-14.2c-3,0-6.1,0.9-8.3,3l-0.3,0.3
			l0.1-13.9h-5.9v38.4h5.9v-2.4l0.3,0.3C356,470.8,359,471.5,362,471.5z M353.6,463.7v-12.8l0,0c1.6-1.8,4.3-3,6.8-3
			c4.8,0,7.3,3.3,7.3,9.4s-2.5,9.4-7.3,9.4C357.9,466.7,355.2,465.5,353.6,463.7L353.6,463.7z"/>
		<path id="XMLID_9_" class="st0" d="M380.8,463.9c2.1,0,3.8,1.7,3.8,3.9c0,2.2-1.7,3.9-3.8,3.9c-2.1,0-3.8-1.7-3.8-3.9
			C377,465.6,378.7,463.9,380.8,463.9z"/>
		<path id="XMLID_6_" class="st0" d="M399.2,471.5c3.2,0,6-0.6,7.9-2.4l0.3-0.3v2.1h5.9v-16c0-8-3.7-11.8-11.6-11.8
			c-4.2,0-8,1.4-11.1,3.9l3.4,3.4c2-1.6,4.5-2.5,7-2.5c4.4,0,6.4,1.9,6.4,5.9v2.7l-0.3-0.2c-2.3-1.8-4.9-2.4-8-2.4
			c-5.9,0-10.2,3.7-10.2,8.8C389.1,467.8,393.3,471.5,399.2,471.5z M400.8,458.6c2.5,0,4.8,0.9,6.6,2.5l0.1,0.1v3l-0.1,0.1
			c-1.6,1.6-4,2.5-6.6,2.5c-3.6,0-5.7-1.5-5.7-4.1C395.1,460.1,397.2,458.6,400.8,458.6z"/>
		<rect id="XMLID_5_" x="418.4" y="432.5" class="st0" width="5.9" height="38.4"/>
		<path id="XMLID_3_" class="st0" d="M322.5,457.4c0-8.4-5.4-14.4-13.1-14.4c-7.8,0-13.2,5.8-13.2,14.2c0,8.5,5.7,14.2,14.1,14.2
			c4.5,0,8.4-1.9,10.9-5.3l-4.1-2.9c-1.9,2.3-4.2,3.4-6.9,3.4c-4.3,0-7.5-2.8-8.1-7.1l0-0.2h20.3C322.5,458.8,322.5,458,322.5,457.4
			z M309.4,447.8c3.9,0,6.8,2.7,7.1,6.8h-14.4C302.8,450.4,305.5,447.8,309.4,447.8z"/>
	</g>
	<path id="XMLID_25_" class="st3" d="M300.8,484.7c0-0.7-0.4-1-1.9-1.5c-1.7-0.5-2.4-1.2-2.4-2.4c0-1.3,0.9-2.1,2.6-2.1
		c1.1,0,2.1,0.4,2.8,1.3l-1,0.8c-0.5-0.5-1.1-0.8-1.8-0.8c-0.9,0-1.3,0.4-1.3,0.9c0,0.6,0.3,0.9,1.6,1.3c1.9,0.5,2.7,1.2,2.7,2.5
		c0,1.4-1.1,2.3-2.8,2.3c-1.3,0-2.5-0.5-3.3-1.4l1-0.8c0.6,0.7,1.3,1,2.2,1C300.3,485.8,300.8,485.3,300.8,484.7z"/>
	<path id="XMLID_27_" class="st3" d="M304.9,482.7v4.1h-1.3v-8.3h1.3v3.1c0.5-0.5,1.1-0.8,2-0.8c1.2,0,2.1,0.8,2.1,2.2v3.8h-1.3
		v-3.6c0-0.8-0.4-1.3-1.1-1.3C305.8,481.9,305.2,482.3,304.9,482.7z"/>
	<path id="XMLID_29_" class="st3" d="M314.1,483.1c0-0.7-0.3-1.2-1.3-1.2c-0.5,0-1.1,0.2-1.5,0.5l-0.8-0.8c0.7-0.6,1.5-0.9,2.4-0.9
		c1.9,0,2.5,1,2.5,2.6v3.5h-1.3v-0.5c-0.4,0.4-1,0.6-1.7,0.6c-1.3,0-2.2-0.8-2.2-1.9c0-1.1,0.9-1.9,2.2-1.9c0.7,0,1.3,0.2,1.7,0.6
		V483.1z M314.1,485.4v-0.6c-0.4-0.3-0.9-0.5-1.4-0.5c-0.7,0-1.2,0.3-1.2,0.8c0,0.6,0.5,0.8,1.2,0.8
		C313.2,485.9,313.7,485.7,314.1,485.4z"/>
	<path id="XMLID_32_" class="st3" d="M320.5,481.9c-0.1,0-0.3,0-0.5,0c-0.7,0-1.3,0.4-1.7,0.9v4H317v-5.9h1.3v0.7
		c0.4-0.5,1-0.9,1.8-0.9c0.1,0,0.3,0,0.4,0V481.9z"/>
	<path id="XMLID_34_" class="st3" d="M326.8,484.4h-4.3c0.1,0.9,0.8,1.5,1.7,1.5c0.6,0,1.1-0.3,1.5-0.7l0.9,0.7
		c-0.6,0.7-1.4,1.2-2.4,1.2c-1.9,0-3.1-1.3-3.1-3.1c0-1.8,1.1-3.1,2.9-3.1c1.7,0,2.9,1.3,2.9,3.1C326.8,484,326.8,484.3,326.8,484.4
		z M322.4,483.4h3c-0.1-0.9-0.7-1.5-1.5-1.5C323.1,481.9,322.5,482.4,322.4,483.4z"/>
	<path id="XMLID_37_" class="st3" d="M335.8,483.1c0-0.7-0.3-1.2-1.3-1.2c-0.5,0-1.1,0.2-1.5,0.5l-0.8-0.8c0.7-0.6,1.5-0.9,2.4-0.9
		c1.9,0,2.5,1,2.5,2.6v3.5h-1.3v-0.5c-0.4,0.4-1,0.6-1.7,0.6c-1.3,0-2.2-0.8-2.2-1.9c0-1.1,0.9-1.9,2.2-1.9c0.7,0,1.3,0.2,1.7,0.6
		V483.1z M335.8,485.4v-0.6c-0.4-0.3-0.9-0.5-1.4-0.5c-0.7,0-1.2,0.3-1.2,0.8c0,0.6,0.5,0.8,1.2,0.8
		C334.9,485.9,335.5,485.7,335.8,485.4z"/>
	<path id="XMLID_40_" class="st3" d="M339.6,482.7v4.1h-1.3v-5.9h1.3v0.7c0.5-0.5,1.1-0.8,2-0.8c1.2,0,2.1,0.8,2.1,2.2v3.8h-1.3
		v-3.6c0-0.8-0.4-1.3-1.1-1.3C340.5,481.9,339.9,482.3,339.6,482.7z"/>
	<path id="XMLID_42_" class="st3" d="M346.7,486.8l-2.4-5.8h1.4l1.6,4.1l1.5-4.1h1.4l-3.1,8.3h-1.4L346.7,486.8z"/>
	<path id="XMLID_44_" class="st3" d="M352,484.9V482h-1v-1.1h1v-1.8h1.3v1.8h1.4v1.1h-1.4v2.9c0,0.7,0.2,1,0.9,1c0.2,0,0.4,0,0.5,0
		v1.1c-0.2,0-0.5,0-0.7,0C352.6,487,352,486.3,352,484.9z"/>
	<path id="XMLID_46_" class="st3" d="M357.1,482.7v4.1h-1.3v-8.3h1.3v3.1c0.5-0.5,1.1-0.8,2-0.8c1.2,0,2.1,0.8,2.1,2.2v3.8h-1.3
		v-3.6c0-0.8-0.4-1.3-1.1-1.3C358.1,481.9,357.5,482.3,357.1,482.7z"/>
	<path id="XMLID_48_" class="st3" d="M363.3,480.1c-0.5,0-0.8-0.4-0.8-0.8c0-0.5,0.4-0.8,0.8-0.8c0.5,0,0.8,0.4,0.8,0.8
		C364.1,479.7,363.7,480.1,363.3,480.1z M362.6,480.9h1.3v5.9h-1.3V480.9z"/>
	<path id="XMLID_51_" class="st3" d="M366.6,482.7v4.1h-1.3v-5.9h1.3v0.7c0.5-0.5,1.1-0.8,2-0.8c1.2,0,2.1,0.8,2.1,2.2v3.8h-1.3
		v-3.6c0-0.8-0.4-1.3-1.1-1.3C367.5,481.9,366.9,482.3,366.6,482.7z"/>
	<path id="XMLID_53_" class="st3" d="M376.2,480.9h1.3v5.6c0,1.8-1,2.8-2.7,2.8c-1.1,0-2.1-0.4-2.7-1.2l1-0.6c0.4,0.5,1,0.8,1.6,0.8
		c0.9,0,1.5-0.5,1.5-1.6v-0.5c-0.5,0.4-1.1,0.7-1.8,0.7c-1.6,0-2.5-1.2-2.5-3.1c0-1.9,0.9-3.1,2.5-3.1c0.7,0,1.3,0.3,1.8,0.7V480.9z
		 M373.3,483.9c0,1.2,0.5,2,1.5,2c0.5,0,1.1-0.2,1.4-0.6v-2.7c-0.4-0.4-0.9-0.6-1.4-0.6C373.8,481.9,373.3,482.7,373.3,483.9z"/>
	<path id="XMLID_56_" class="st3" d="M384.3,486.8l-2.2-5.9h1.4l1.6,4.4l1.6-4.4h1.4l-2.2,5.9H384.3z"/>
	<path id="XMLID_58_" class="st3" d="M394.2,484.4h-4.3c0.1,0.9,0.8,1.5,1.7,1.5c0.6,0,1.1-0.3,1.5-0.7l0.9,0.7
		c-0.6,0.7-1.4,1.2-2.4,1.2c-1.9,0-3.1-1.3-3.1-3.1c0-1.8,1.1-3.1,2.9-3.1c1.7,0,2.9,1.3,2.9,3.1C394.2,484,394.2,484.3,394.2,484.4
		z M389.8,483.4h3c-0.1-0.9-0.7-1.5-1.5-1.5C390.5,481.9,389.9,482.4,389.8,483.4z"/>
	<path id="XMLID_61_" class="st3" d="M398.8,481.9c-0.1,0-0.3,0-0.5,0c-0.7,0-1.3,0.4-1.7,0.9v4h-1.3v-5.9h1.3v0.7
		c0.4-0.5,1-0.9,1.8-0.9c0.1,0,0.3,0,0.4,0V481.9z"/>
	<path id="XMLID_63_" class="st3" d="M402.8,487c-0.7,0-1.3-0.3-1.8-0.7v0.6h-1.3v-8.3h1.3v3c0.5-0.4,1.1-0.7,1.8-0.7
		c1.6,0,2.5,1.2,2.5,3.1C405.3,485.8,404.4,487,402.8,487z M401,482.5v2.7c0.4,0.4,0.9,0.6,1.4,0.6c1,0,1.5-0.7,1.5-2s-0.5-2-1.5-2
		C401.9,481.9,401.4,482.1,401,482.5z"/>
	<path id="XMLID_66_" class="st3" d="M410.2,483.1c0-0.7-0.3-1.2-1.3-1.2c-0.5,0-1.1,0.2-1.5,0.5l-0.8-0.8c0.7-0.6,1.5-0.9,2.4-0.9
		c1.9,0,2.5,1,2.5,2.6v3.5h-1.3v-0.5c-0.4,0.4-1,0.6-1.7,0.6c-1.3,0-2.2-0.8-2.2-1.9c0-1.1,0.9-1.9,2.2-1.9c0.7,0,1.3,0.2,1.7,0.6
		V483.1z M410.2,485.4v-0.6c-0.4-0.3-0.9-0.5-1.4-0.5c-0.7,0-1.2,0.3-1.2,0.8c0,0.6,0.5,0.8,1.2,0.8
		C409.3,485.9,409.9,485.7,410.2,485.4z"/>
	<path id="XMLID_69_" class="st3" d="M412.8,478.5h1.3v8.3h-1.3V478.5z"/>
	<path id="XMLID_71_" class="st3" d="M415.8,478.5h1.3v8.3h-1.3V478.5z"/>
	<path id="XMLID_74_" class="st3" d="M420.8,486.8l-2.4-5.8h1.4l1.6,4.1l1.5-4.1h1.4l-3.1,8.3h-1.4L420.8,486.8z"/>
</g>
<g id="XMLID_142_">
	<path id="XMLID_141_" class="st1" d="M231.3,166.7V149c0-2.2-0.4-4.4-1-6.4c-2.7-7.9-10.5-13.6-19.3-13.6h-5.4l-3.1,20.9l3.1,16.8
		l9.2,4.5l6.6-4.5H231.3z"/>
	<path id="XMLID_140_" class="st2" d="M221.4,166.7l0,2.6c0,2.4-0.5,4.7-1.5,6.7c-2.5,5.5-8.1,9.2-14.5,9.2h0l-4.1-11.2l4.1-7.3
		H221.4z"/>
	<polygon id="XMLID_139_" class="st3" points="205.6,200.8 205.6,173.5 172.9,173.5 	"/>
	<path id="XMLID_138_" class="st3" d="M205.6,129h-12.2h-12.5c-11,0-20,8.9-20,20v16c0,11,8.9,20,20,20h24.8V129z"/>
	<circle id="XMLID_137_" class="st0" cx="183.2" cy="157" r="9"/>
	<g id="XMLID_122_">
		<polygon id="XMLID_136_" class="st4" points="279.9,139.3 269.4,169.3 258.8,139.3 252.1,139.3 265.6,176.1 273.1,176.1 
			286.6,139.3 		"/>
		<path id="XMLID_135_" class="st4" d="M332.9,154v-5.6c-0.4,0-1-0.1-1.6-0.1c-3.4,0-6.2,1.4-8.1,3.9l-0.3,0.4V149H317v27.1h5.9
			l0-18.1l0,0c1.6-2.5,4.6-4.1,7.9-4.1C331.6,153.9,332.4,154,332.9,154z"/>
		<path id="XMLID_132_" class="st4" d="M351.9,176.8c7.3,0,11.7-5.3,11.7-14.2c0-8.9-4.4-14.2-11.7-14.2c-3,0-6.1,0.9-8.3,3
			l-0.3,0.3l0.1-13.9h-5.9v38.4h5.9v-2.4l0.3,0.3C345.9,176,348.9,176.8,351.9,176.8z M343.5,168.9v-12.8l0,0c1.6-1.8,4.3-3,6.8-3
			c4.8,0,7.3,3.3,7.3,9.4s-2.5,9.4-7.3,9.4C347.8,172,345.1,170.8,343.5,168.9L343.5,168.9z"/>
		<path id="XMLID_130_" class="st4" d="M370.7,169.2c2.1,0,3.8,1.7,3.8,3.9c0,2.2-1.7,3.9-3.8,3.9c-2.1,0-3.8-1.7-3.8-3.9
			C366.9,170.9,368.6,169.2,370.7,169.2z"/>
		<path id="XMLID_127_" class="st4" d="M389.1,176.8c3.2,0,6-0.6,7.9-2.4l0.3-0.3v2.1h5.9v-16c0-8-3.7-11.8-11.6-11.8
			c-4.2,0-8,1.4-11.1,3.9l3.4,3.4c2-1.6,4.5-2.5,7-2.5c4.4,0,6.4,1.9,6.4,5.9v2.7l-0.3-0.2c-2.3-1.8-4.9-2.4-8-2.4
			c-5.9,0-10.2,3.7-10.2,8.8C379,173.1,383.2,176.8,389.1,176.8z M390.7,163.9c2.5,0,4.8,0.9,6.6,2.5l0.1,0.1v3l-0.1,0.1
			c-1.6,1.6-4,2.5-6.6,2.5c-3.6,0-5.7-1.5-5.7-4.1C385,165.4,387.1,163.9,390.7,163.9z"/>
		<rect id="XMLID_126_" x="408.3" y="137.8" class="st4" width="5.9" height="38.4"/>
		<path id="XMLID_123_" class="st4" d="M312.4,162.7c0-8.4-5.4-14.4-13.1-14.4c-7.8,0-13.2,5.8-13.2,14.2c0,8.5,5.7,14.2,14.1,14.2
			c4.5,0,8.4-1.9,10.9-5.3l-4.1-2.9c-1.9,2.3-4.2,3.4-6.9,3.4c-4.3,0-7.5-2.8-8.1-7.1l0-0.2h20.3
			C312.4,164.1,312.4,163.2,312.4,162.7z M299.3,153.1c3.9,0,6.8,2.7,7.1,6.8H292C292.7,155.6,295.4,153.1,299.3,153.1z"/>
	</g>
	<path id="XMLID_120_" class="st4" d="M290.7,190c0-0.7-0.4-1-1.9-1.5c-1.7-0.5-2.4-1.2-2.4-2.4c0-1.3,0.9-2.1,2.6-2.1
		c1.1,0,2.1,0.4,2.8,1.3l-1,0.8c-0.5-0.5-1.1-0.8-1.8-0.8c-0.9,0-1.3,0.4-1.3,0.9c0,0.6,0.3,0.9,1.6,1.3c1.9,0.5,2.7,1.2,2.7,2.5
		c0,1.4-1.1,2.3-2.8,2.3c-1.3,0-2.5-0.5-3.3-1.4l1-0.8c0.6,0.7,1.3,1,2.2,1C290.2,191,290.7,190.6,290.7,190z"/>
	<path id="XMLID_118_" class="st4" d="M294.8,188v4.1h-1.3v-8.3h1.3v3.1c0.5-0.5,1.1-0.8,2-0.8c1.2,0,2.1,0.8,2.1,2.2v3.8h-1.3v-3.6
		c0-0.8-0.4-1.3-1.1-1.3C295.7,187.2,295.1,187.6,294.8,188z"/>
	<path id="XMLID_115_" class="st4" d="M304,188.4c0-0.7-0.3-1.2-1.3-1.2c-0.5,0-1.1,0.2-1.5,0.5l-0.8-0.8c0.7-0.6,1.5-0.9,2.4-0.9
		c1.9,0,2.5,1,2.5,2.6v3.5H304v-0.5c-0.4,0.4-1,0.6-1.7,0.6c-1.3,0-2.2-0.8-2.2-1.9c0-1.1,0.9-1.9,2.2-1.9c0.7,0,1.3,0.2,1.7,0.6
		V188.4z M304,190.6V190c-0.4-0.3-0.9-0.5-1.4-0.5c-0.7,0-1.2,0.3-1.2,0.8s0.5,0.8,1.2,0.8C303.1,191.2,303.6,191,304,190.6z"/>
	<path id="XMLID_113_" class="st4" d="M310.4,187.2c-0.1,0-0.3,0-0.5,0c-0.7,0-1.3,0.4-1.7,0.9v4h-1.3v-5.9h1.3v0.7
		c0.4-0.5,1-0.9,1.8-0.9c0.1,0,0.3,0,0.4,0V187.2z"/>
	<path id="XMLID_110_" class="st4" d="M316.7,189.7h-4.3c0.1,0.9,0.8,1.5,1.7,1.5c0.6,0,1.1-0.3,1.5-0.7l0.9,0.7
		c-0.6,0.7-1.4,1.2-2.4,1.2c-1.9,0-3.1-1.3-3.1-3.1c0-1.8,1.1-3.1,2.9-3.1c1.7,0,2.9,1.3,2.9,3.1
		C316.7,189.3,316.7,189.5,316.7,189.7z M312.3,188.6h3c-0.1-0.9-0.7-1.5-1.5-1.5C313,187.2,312.4,187.7,312.3,188.6z"/>
	<path id="XMLID_107_" class="st4" d="M325.7,188.4c0-0.7-0.3-1.2-1.3-1.2c-0.5,0-1.1,0.2-1.5,0.5l-0.8-0.8c0.7-0.6,1.5-0.9,2.4-0.9
		c1.9,0,2.5,1,2.5,2.6v3.5h-1.3v-0.5c-0.4,0.4-1,0.6-1.7,0.6c-1.3,0-2.2-0.8-2.2-1.9c0-1.1,0.9-1.9,2.2-1.9c0.7,0,1.3,0.2,1.7,0.6
		V188.4z M325.7,190.6V190c-0.4-0.3-0.9-0.5-1.4-0.5c-0.7,0-1.2,0.3-1.2,0.8s0.5,0.8,1.2,0.8C324.8,191.2,325.4,191,325.7,190.6z"/>
	<path id="XMLID_105_" class="st4" d="M329.5,188v4.1h-1.3v-5.9h1.3v0.7c0.5-0.5,1.1-0.8,2-0.8c1.2,0,2.1,0.8,2.1,2.2v3.8h-1.3v-3.6
		c0-0.8-0.4-1.3-1.1-1.3C330.4,187.2,329.8,187.6,329.5,188z"/>
	<path id="XMLID_103_" class="st4" d="M336.6,192.1l-2.4-5.8h1.4l1.6,4.1l1.5-4.1h1.4l-3.1,8.3h-1.4L336.6,192.1z"/>
	<path id="XMLID_101_" class="st4" d="M341.9,190.1v-2.9h-1v-1.1h1v-1.8h1.3v1.8h1.4v1.1h-1.4v2.9c0,0.7,0.2,1,0.9,1
		c0.2,0,0.4,0,0.5,0v1.1c-0.2,0-0.5,0-0.7,0C342.5,192.2,341.9,191.6,341.9,190.1z"/>
	<path id="XMLID_99_" class="st4" d="M347,188v4.1h-1.3v-8.3h1.3v3.1c0.5-0.5,1.1-0.8,2-0.8c1.2,0,2.1,0.8,2.1,2.2v3.8h-1.3v-3.6
		c0-0.8-0.4-1.3-1.1-1.3C348,187.2,347.4,187.6,347,188z"/>
	<path id="XMLID_96_" class="st4" d="M353.2,185.3c-0.5,0-0.8-0.4-0.8-0.8c0-0.5,0.4-0.8,0.8-0.8c0.5,0,0.8,0.4,0.8,0.8
		C354,185,353.6,185.3,353.2,185.3z M352.5,186.2h1.3v5.9h-1.3V186.2z"/>
	<path id="XMLID_94_" class="st4" d="M356.5,188v4.1h-1.3v-5.9h1.3v0.7c0.5-0.5,1.1-0.8,2-0.8c1.2,0,2.1,0.8,2.1,2.2v3.8h-1.3v-3.6
		c0-0.8-0.4-1.3-1.1-1.3C357.4,187.2,356.8,187.6,356.5,188z"/>
	<path id="XMLID_91_" class="st4" d="M366.1,186.2h1.3v5.6c0,1.8-1,2.8-2.7,2.8c-1.1,0-2.1-0.4-2.7-1.2l1-0.6c0.4,0.5,1,0.8,1.6,0.8
		c0.9,0,1.5-0.5,1.5-1.6v-0.5c-0.5,0.4-1.1,0.7-1.8,0.7c-1.6,0-2.5-1.2-2.5-3.1c0-1.9,0.9-3.1,2.5-3.1c0.7,0,1.3,0.3,1.8,0.7V186.2z
		 M363.2,189.2c0,1.2,0.5,2,1.5,2c0.5,0,1.1-0.2,1.4-0.6v-2.7c-0.4-0.4-0.9-0.6-1.4-0.6C363.7,187.2,363.2,187.9,363.2,189.2z"/>
	<path id="XMLID_89_" class="st4" d="M374.2,192.1l-2.2-5.9h1.4l1.6,4.4l1.6-4.4h1.4l-2.2,5.9H374.2z"/>
	<path id="XMLID_86_" class="st4" d="M384,189.7h-4.3c0.1,0.9,0.8,1.5,1.7,1.5c0.6,0,1.1-0.3,1.5-0.7l0.9,0.7
		c-0.6,0.7-1.4,1.2-2.4,1.2c-1.9,0-3.1-1.3-3.1-3.1c0-1.8,1.1-3.1,2.9-3.1c1.7,0,2.9,1.3,2.9,3.1C384.1,189.3,384.1,189.5,384,189.7
		z M379.7,188.6h3c-0.1-0.9-0.7-1.5-1.5-1.5C380.4,187.2,379.8,187.7,379.7,188.6z"/>
	<path id="XMLID_84_" class="st4" d="M388.7,187.2c-0.1,0-0.3,0-0.5,0c-0.7,0-1.3,0.4-1.7,0.9v4h-1.3v-5.9h1.3v0.7
		c0.4-0.5,1-0.9,1.8-0.9c0.1,0,0.3,0,0.4,0V187.2z"/>
	<path id="XMLID_81_" class="st4" d="M392.7,192.2c-0.7,0-1.3-0.3-1.8-0.7v0.6h-1.3v-8.3h1.3v3c0.5-0.4,1.1-0.7,1.8-0.7
		c1.6,0,2.5,1.2,2.5,3.1C395.2,191.1,394.3,192.2,392.7,192.2z M390.9,187.8v2.7c0.4,0.4,0.9,0.6,1.4,0.6c1,0,1.5-0.7,1.5-2
		c0-1.2-0.5-2-1.5-2C391.8,187.2,391.3,187.4,390.9,187.8z"/>
	<path id="XMLID_78_" class="st4" d="M400.1,188.4c0-0.7-0.3-1.2-1.3-1.2c-0.5,0-1.1,0.2-1.5,0.5l-0.8-0.8c0.7-0.6,1.5-0.9,2.4-0.9
		c1.9,0,2.5,1,2.5,2.6v3.5h-1.3v-0.5c-0.4,0.4-1,0.6-1.7,0.6c-1.3,0-2.2-0.8-2.2-1.9c0-1.1,0.9-1.9,2.2-1.9c0.7,0,1.3,0.2,1.7,0.6
		V188.4z M400.1,190.6V190c-0.4-0.3-0.9-0.5-1.4-0.5c-0.7,0-1.2,0.3-1.2,0.8s0.5,0.8,1.2,0.8C399.2,191.2,399.8,191,400.1,190.6z"/>
	<path id="XMLID_76_" class="st4" d="M402.7,183.8h1.3v8.3h-1.3V183.8z"/>
	<path id="XMLID_23_" class="st4" d="M405.7,183.8h1.3v8.3h-1.3V183.8z"/>
	<path id="XMLID_1_" class="st4" d="M410.7,192.1l-2.4-5.8h1.4l1.6,4.1l1.5-4.1h1.4l-3.1,8.3h-1.4L410.7,192.1z"/>
</g>
</svg>
